<?xml version="1.0" standalone="no"?>
<!DOCTYPE svg PUBLIC "-//W3C//DTD SVG 20010904//EN"
 "http://www.w3.org/TR/2001/REC-SVG-20010904/DTD/svg10.dtd">
<svg version="1.0" xmlns="http://www.w3.org/2000/svg"
 width="1440.000000pt" height="1440.000000pt" viewBox="0 0 1440.000000 1440.000000"
 preserveAspectRatio="xMidYMid meet">
<metadata>
Created by potrace 1.11, written by Peter Selinger 2001-2013
</metadata>
<g transform="translate(0.000000,1440.000000) scale(0.100000,-0.100000)"
fill="#000000" stroke="none">
<path d="M5926 11506 c-21 -20 -42 -36 -47 -36 -6 0 -7 -4 -4 -10 3 -5 2 -10
-4 -10 -5 0 -35 -24 -65 -54 -31 -30 -56 -51 -56 -47 -1 3 -7 -5 -15 -19 -8
-14 -14 -21 -15 -17 0 4 -11 -3 -23 -17 -13 -14 -27 -23 -30 -19 -4 3 -7 0 -7
-7 0 -14 -37 -50 -52 -50 -5 0 -6 -4 -3 -10 3 -5 2 -10 -4 -10 -5 0 -39 -29
-75 -64 -36 -35 -66 -62 -66 -60 0 2 -22 -18 -49 -45 -27 -27 -51 -48 -53 -45
-3 2 -11 -7 -18 -21 -7 -14 -17 -25 -22 -25 -4 0 -25 -18 -45 -40 -21 -22 -41
-40 -45 -40 -5 0 -17 -9 -28 -20 -11 -11 -17 -20 -14 -20 3 0 -9 -12 -28 -27
-18 -15 -37 -33 -41 -40 -4 -7 -15 -13 -23 -13 -8 0 -12 -4 -9 -10 3 -5 -5
-15 -19 -21 -14 -7 -23 -16 -20 -20 3 -5 0 -9 -6 -9 -6 0 -33 -22 -60 -50 -38
-39 -48 -55 -46 -80 1 -16 0 -30 -3 -30 -3 0 -6 -36 -6 -81 0 -44 -4 -83 -8
-86 -4 -3 -3 -11 4 -19 8 -10 8 -18 1 -27 -6 -7 -14 -62 -17 -122 -11 -189
-12 -202 -19 -213 -3 -6 -2 -14 4 -17 7 -4 8 -11 1 -18 -5 -7 -8 -34 -7 -60 1
-27 -2 -51 -7 -54 -4 -2 -3 -11 4 -19 7 -9 8 -14 1 -14 -6 0 -11 -8 -11 -17 0
-69 -9 -182 -16 -193 -6 -9 -4 -11 4 -5 10 5 11 3 4 -11 -5 -11 -9 -45 -9 -76
1 -32 -1 -58 -4 -58 -3 0 -5 -24 -5 -52 1 -29 -3 -61 -7 -70 -5 -10 -4 -19 2
-23 8 -5 7 -11 -1 -21 -6 -8 -9 -14 -6 -14 3 0 2 -13 -3 -30 -5 -19 -5 -30 1
-30 6 0 7 -6 2 -12 -4 -7 -7 -36 -8 -65 0 -46 -4 -55 -35 -82 -19 -17 -43 -33
-53 -37 -9 -3 -15 -10 -12 -15 4 -5 0 -9 -7 -9 -8 0 -27 -11 -43 -25 -75 -61
-94 -75 -104 -75 -6 0 -11 -4 -11 -9 0 -5 -16 -19 -35 -31 -19 -12 -32 -27
-29 -32 4 -7 2 -8 -4 -4 -7 4 -12 2 -12 -4 0 -6 -4 -9 -8 -6 -5 3 -23 -8 -41
-24 -18 -17 -36 -30 -42 -30 -5 0 -9 -5 -9 -12 0 -6 -3 -9 -6 -5 -3 3 -16 -5
-29 -19 -12 -13 -27 -24 -34 -24 -6 0 -11 -3 -11 -7 0 -5 -17 -19 -38 -33 -20
-14 -42 -29 -48 -35 -6 -5 -27 -21 -47 -35 -20 -14 -37 -28 -37 -32 0 -5 -7
-8 -16 -8 -9 0 -12 -5 -8 -11 4 -7 1 -10 -7 -7 -15 5 -39 -40 -39 -73 0 -11
-5 -19 -11 -19 -5 0 -7 -5 -4 -10 4 -6 1 -17 -5 -25 -7 -8 -10 -22 -6 -30 3
-8 2 -15 -2 -15 -4 0 -8 -10 -9 -22 -1 -11 -6 -24 -10 -27 -4 -3 -9 -15 -10
-26 -2 -24 -21 -104 -30 -125 -3 -8 -7 -22 -7 -30 -1 -8 -5 -20 -9 -27 -4 -6
-8 -23 -9 -37 -1 -14 -6 -26 -10 -26 -4 0 -7 -3 -6 -7 4 -12 -24 -106 -35
-120 -6 -9 -6 -13 2 -13 7 0 6 -9 -5 -25 -8 -13 -13 -29 -10 -34 4 -5 2 -12
-4 -16 -6 -4 -8 -10 -5 -15 3 -5 1 -11 -5 -15 -6 -4 -8 -11 -4 -16 3 -5 0 -16
-6 -24 -7 -8 -10 -15 -6 -15 3 0 -1 -16 -9 -36 -8 -20 -12 -40 -9 -45 3 -5 1
-9 -3 -9 -5 0 -10 -12 -11 -26 -1 -15 -7 -33 -13 -40 -9 -11 -8 -14 2 -14 9 0
10 -3 4 -8 -5 -4 -16 -18 -23 -31 -11 -19 -11 -22 0 -15 10 6 10 4 -1 -9 -7
-9 -10 -17 -6 -17 4 0 3 -6 -2 -12 -5 -7 -10 -28 -12 -45 -2 -25 2 -33 13 -33
9 0 16 -5 16 -10 0 -6 11 -16 25 -22 14 -6 25 -17 25 -23 0 -7 8 -15 18 -19
22 -8 88 -56 76 -56 -5 0 7 -10 26 -22 19 -12 39 -28 43 -35 4 -7 13 -13 18
-13 6 0 17 -7 26 -15 8 -8 20 -12 26 -8 7 3 9 3 5 -2 -7 -7 14 -35 27 -35 4 0
13 -7 22 -15 8 -8 19 -12 25 -9 6 4 9 3 6 -2 -4 -5 17 -25 45 -44 29 -19 59
-43 68 -52 9 -10 19 -15 23 -11 3 3 6 1 6 -6 0 -7 4 -10 8 -7 5 3 15 -4 22
-15 8 -10 18 -19 22 -19 10 0 96 -59 103 -71 4 -5 11 -7 16 -4 5 4 12 0 15 -8
3 -9 19 -21 35 -27 16 -7 29 -17 29 -22 0 -5 4 -7 9 -4 5 3 12 -1 15 -10 3 -8
10 -13 14 -10 5 3 19 -5 33 -17 14 -12 31 -23 39 -25 8 -2 19 -10 23 -18 5 -8
12 -12 18 -9 5 4 9 1 9 -4 0 -6 7 -11 15 -11 8 0 15 -3 15 -7 0 -5 18 -17 40
-27 22 -11 40 -23 40 -28 0 -4 3 -7 8 -6 4 1 18 -5 32 -14 14 -9 31 -18 39
-20 13 -3 34 -17 65 -43 6 -5 18 -11 26 -13 7 -2 26 -12 41 -23 15 -10 34 -19
43 -19 9 0 16 -4 16 -10 0 -5 6 -10 14 -10 7 0 26 -10 42 -22 16 -13 25 -16
20 -8 -4 8 -1 7 7 -3 9 -10 18 -18 21 -18 12 1 41 -13 47 -22 4 -5 18 -10 32
-10 14 -1 23 -5 20 -9 -2 -5 3 -8 11 -8 9 0 16 -4 16 -10 0 -5 7 -10 15 -10
18 0 57 -20 67 -35 5 -6 8 -4 8 5 0 10 3 11 8 4 10 -16 68 -44 76 -37 3 4 6 1
6 -5 0 -7 9 -12 20 -12 11 0 20 -5 20 -11 0 -5 4 -8 9 -4 5 3 13 0 16 -6 4 -5
13 -8 21 -5 8 3 14 1 14 -4 0 -6 9 -10 20 -10 11 0 20 -3 20 -8 0 -7 59 -30
95 -37 11 -2 22 -4 25 -6 3 -1 10 -3 15 -3 6 -1 22 -10 37 -20 15 -10 32 -15
38 -11 5 3 10 1 10 -4 0 -6 8 -11 18 -11 9 0 30 -7 46 -15 15 -8 35 -15 42
-15 8 0 14 -4 14 -9 0 -5 9 -7 20 -4 12 3 20 0 20 -7 0 -7 7 -10 15 -6 8 3 15
1 15 -5 0 -6 6 -9 13 -6 7 3 21 -1 31 -9 11 -7 23 -11 27 -8 5 3 9 1 9 -3 0
-8 15 -12 58 -15 6 -1 12 -5 12 -10 0 -4 7 -8 15 -8 8 0 23 -4 33 -10 9 -5 37
-15 62 -22 54 -14 50 -13 75 -22 69 -27 92 -33 108 -31 9 2 15 0 12 -5 -4 -7
16 -14 79 -26 11 -3 25 -9 31 -14 6 -5 26 -10 43 -12 18 -1 32 -6 32 -10 0 -4
11 -8 25 -8 14 0 25 -4 25 -8 0 -4 12 -9 27 -10 15 -1 29 -5 32 -10 7 -8 20
-11 56 -14 14 -1 25 -6 25 -10 0 -4 3 -7 8 -6 4 1 27 -4 52 -12 25 -7 51 -13
58 -13 6 0 12 -4 12 -9 0 -4 3 -7 8 -6 15 3 82 -15 82 -22 0 -5 11 -7 25 -4
15 3 25 0 25 -7 0 -7 10 -9 24 -7 16 3 27 0 30 -9 3 -8 10 -11 16 -8 6 4 24 0
40 -9 20 -9 28 -10 24 -3 -5 8 -3 8 7 0 7 -7 25 -13 40 -13 15 0 30 -4 34 -10
3 -5 12 -7 20 -3 8 3 15 1 15 -5 0 -6 11 -9 25 -8 13 2 22 0 20 -4 -3 -4 12
-11 33 -14 55 -9 75 -13 99 -23 21 -8 20 -11 -31 -61 -134 -133 -178 -339
-106 -498 35 -77 148 -165 247 -195 60 -17 79 -40 66 -82 -23 -77 40 -105 101
-44 111 109 118 219 20 314 -43 41 -92 66 -172 86 -117 29 -158 71 -155 158 2
95 74 189 158 207 68 15 155 7 210 -19 69 -33 141 -109 178 -188 29 -61 31
-75 31 -176 1 -97 -3 -118 -26 -173 -62 -149 -155 -258 -319 -372 -125 -88
-159 -121 -152 -148 10 -39 29 -46 84 -34 91 21 118 12 206 -67 166 -151 280
-189 392 -131 43 21 150 108 210 169 l34 34 18 -49 c26 -68 74 -122 133 -150
82 -38 92 -35 208 69 161 144 167 153 131 195 -17 20 -20 20 -58 7 -62 -23
-83 -19 -105 18 -19 31 -20 50 -19 462 0 237 5 457 10 490 13 75 38 132 76
170 42 41 49 69 24 94 -26 26 -36 23 -226 -68 -307 -147 -304 -145 -291 -194
5 -20 14 -28 40 -33 23 -4 36 -13 40 -27 3 -12 6 -207 6 -433 l0 -411 -44 -41
c-97 -90 -164 -96 -237 -23 -51 51 -101 91 -156 125 l-63 39 48 41 c94 82 227
222 264 281 72 110 101 273 72 398 -32 135 -128 263 -238 317 -65 32 -175 60
-219 55 -15 -2 -27 0 -27 3 0 7 61 31 90 36 8 1 30 10 47 19 18 10 36 18 40
19 28 5 42 11 39 17 -2 3 10 7 27 8 17 1 34 8 38 14 4 6 12 8 18 5 6 -4 14 -1
17 8 3 8 12 12 20 9 8 -3 14 0 14 6 0 6 3 10 8 9 15 -3 62 15 62 24 0 5 4 7 9
4 11 -7 71 16 71 27 0 4 4 6 9 2 5 -3 12 -1 16 5 4 6 11 8 16 5 5 -4 9 -1 9 5
0 7 7 10 15 6 8 -3 15 -2 15 2 0 4 28 18 63 32 34 13 65 28 68 33 3 5 8 8 10
7 11 -5 59 14 59 23 0 6 3 8 6 4 4 -3 19 0 35 9 16 8 32 15 36 15 5 0 16 8 26
16 9 9 17 13 17 8 0 -4 11 0 25 9 14 9 25 13 25 10 0 -4 9 1 21 12 12 10 23
18 25 17 12 -8 24 -1 18 10 -4 6 -4 9 0 5 10 -8 66 11 66 23 0 4 7 6 15 3 8
-4 15 -2 15 4 0 9 37 25 53 23 4 -1 7 4 7 10 0 6 7 9 15 5 8 -3 15 -1 15 4 0
10 40 25 55 21 6 -1 7 0 3 4 -6 7 184 106 199 104 3 0 10 6 15 15 5 9 13 14
19 11 5 -4 9 -2 9 2 0 8 43 28 64 30 5 1 13 8 18 17 5 9 13 14 17 11 5 -2 14
2 21 10 7 8 16 12 21 9 5 -3 9 -1 9 4 0 6 12 15 28 21 15 7 45 23 67 36 22 14
47 28 55 32 8 4 20 12 27 17 30 27 40 33 71 46 17 8 32 18 32 21 0 4 13 12 30
19 16 7 27 17 23 23 -3 6 -1 7 5 3 6 -3 23 5 37 20 14 14 29 24 32 21 3 -3 15
5 28 19 12 13 27 24 34 24 6 0 11 5 11 12 0 6 3 8 7 5 3 -4 12 1 19 11 7 9 16
17 21 17 8 0 18 8 81 65 18 17 35 30 37 30 7 0 38 27 112 98 36 34 70 62 76
62 6 0 8 3 4 6 -3 3 8 19 24 35 18 17 27 34 23 42 -4 6 -3 9 1 4 10 -8 45 21
45 37 0 6 9 17 20 24 11 7 20 19 20 27 0 8 4 15 8 15 5 0 14 16 22 35 8 19 18
35 22 35 5 0 7 4 4 9 -4 5 -2 11 4 13 16 5 18 51 4 79 -7 15 -11 29 -7 32 3 4
2 14 -2 24 -5 10 -9 25 -10 33 0 8 -5 31 -10 50 -5 19 -10 38 -11 43 -1 4 -3
8 -4 10 -2 2 -6 26 -14 82 -1 11 -7 29 -13 40 -6 11 -8 26 -6 33 3 6 1 12 -4
12 -5 0 -10 12 -11 28 -3 51 -14 92 -26 92 -6 0 -4 5 4 10 10 6 11 10 3 10 -7
0 -12 3 -11 8 3 8 -21 130 -30 152 -7 19 -9 29 -11 58 0 13 -4 21 -8 19 -5 -3
-9 9 -10 26 -6 75 -7 85 -13 82 -6 -4 -36 143 -32 158 1 4 -2 7 -6 7 -4 0 -9
14 -10 32 -2 18 -6 35 -10 38 -4 3 -8 17 -9 32 -2 33 -26 60 -70 79 -18 8 -33
17 -33 21 0 5 -7 8 -15 8 -8 0 -15 5 -15 10 0 6 -7 10 -15 10 -8 0 -15 5 -15
10 0 6 -7 10 -15 10 -8 0 -15 5 -15 11 0 5 -4 8 -8 5 -5 -3 -20 5 -33 17 -13
12 -25 21 -26 19 -2 -1 -28 13 -58 33 -31 19 -58 35 -62 35 -3 0 -21 11 -39
25 -18 14 -44 29 -58 35 -14 5 -26 14 -26 19 0 5 -13 12 -29 16 -16 3 -37 15
-47 26 -9 10 -23 19 -31 19 -7 0 -13 5 -13 11 0 5 -5 7 -10 4 -5 -3 -10 1 -10
9 0 10 -6 13 -15 10 -8 -4 -15 -1 -15 5 0 6 -7 11 -15 11 -8 0 -15 5 -15 11 0
5 -4 7 -10 4 -5 -3 -10 -1 -10 4 0 6 -7 11 -15 11 -8 0 -15 5 -15 10 0 6 -6
10 -14 10 -8 0 -21 6 -28 14 -8 7 -27 21 -43 30 -17 9 -43 25 -60 35 -16 10
-33 17 -36 15 -14 -8 -29 124 -33 268 0 32 -3 58 -6 58 -4 0 -6 10 -7 23 -6
130 -8 157 -13 157 -3 0 -6 33 -7 73 -4 116 -15 244 -23 267 -1 3 -2 27 -1 55
0 27 -5 56 -12 64 -9 10 -9 15 -1 18 9 3 9 13 1 38 -5 19 -14 32 -19 29 -4 -3
-8 -2 -8 3 0 4 -15 9 -33 10 -36 1 -100 13 -106 19 -2 2 -11 -2 -19 -9 -13 -9
-14 -9 -8 1 7 12 -1 14 -51 15 -13 0 -23 4 -23 10 0 5 -8 3 -17 -4 -13 -11
-15 -11 -9 -1 6 10 3 13 -10 12 -11 -1 -21 -1 -24 0 -3 1 -16 3 -30 6 -14 2
-41 7 -60 11 -19 3 -46 6 -60 6 -14 0 -27 3 -30 8 -3 4 -30 10 -60 13 -30 3
-66 8 -80 11 -14 3 -38 8 -55 10 -16 2 -41 7 -54 11 -19 6 -22 4 -16 -7 7 -12
6 -12 -7 -1 -9 7 -29 15 -45 18 -15 3 -37 8 -48 11 -11 4 -38 7 -60 8 -22 0
-45 4 -52 8 -7 4 -28 8 -48 9 -19 1 -35 4 -35 8 0 3 -17 7 -37 8 -54 2 -95 8
-115 16 -9 4 -31 8 -50 10 -18 1 -37 4 -43 7 -5 3 -25 6 -44 8 -19 1 -39 5
-45 10 -6 4 -23 6 -38 5 -16 -2 -28 0 -28 4 0 4 -18 7 -40 6 -22 0 -40 2 -40
6 0 4 -6 7 -12 8 -7 0 -30 2 -50 3 -21 1 -38 5 -38 8 0 3 -12 7 -27 7 -16 1
-46 5 -68 9 -22 4 -56 9 -75 12 -19 2 -42 7 -50 10 -8 3 -31 6 -50 7 -20 1
-41 5 -47 9 -6 4 -30 9 -53 11 -27 3 -48 12 -61 27 -10 12 -19 19 -19 15 0 -7
-14 3 -50 36 -10 9 -21 14 -24 10 -3 -3 -6 0 -6 6 0 7 -7 12 -16 12 -9 0 -12
5 -8 12 5 8 2 9 -10 5 -9 -4 -15 -3 -11 2 3 6 -8 18 -25 27 -16 10 -30 22 -30
26 0 4 -7 8 -15 8 -8 0 -15 4 -15 8 0 4 -12 15 -27 24 -32 19 -67 46 -94 71
-11 9 -22 17 -25 17 -7 0 -88 63 -92 73 -2 4 -9 7 -16 7 -6 0 -19 9 -29 20
-10 12 -22 18 -27 15 -6 -3 -10 1 -10 9 0 15 -12 21 -33 17 -5 -1 -6 3 -2 9 3
5 2 10 -4 10 -5 0 -24 15 -42 33 -18 17 -29 26 -25 19 7 -11 4 -11 -12 -1 -12
7 -19 16 -16 20 2 4 -5 10 -16 14 -11 3 -26 12 -32 18 -19 18 -127 97 -132 98
-5 0 -44 31 -77 62 -10 9 -23 17 -29 17 -5 0 -10 5 -10 10 0 6 -7 10 -15 10
-8 0 -15 7 -15 16 0 8 -4 12 -10 9 -5 -3 -10 -1 -10 5 0 6 -5 8 -10 5 -6 -3
-13 1 -16 9 -3 9 -12 16 -20 16 -8 0 -14 3 -14 8 0 4 -17 18 -38 32 -20 14
-39 27 -42 30 -14 15 -89 70 -95 70 -4 0 -13 7 -20 16 -10 15 -16 13 -49 -20z"/>
<path d="M4368 5705 c-56 -32 -94 -147 -97 -294 -3 -136 -22 -175 -106 -212
-52 -23 -62 -40 -47 -75 10 -22 18 -24 72 -24 59 0 60 -1 61 -27 0 -16 2 -39
4 -53 2 -14 6 -63 10 -110 4 -47 8 -96 10 -110 1 -14 6 -64 10 -110 7 -98 12
-154 20 -230 2 -30 7 -86 10 -125 5 -68 14 -180 20 -240 1 -16 6 -73 10 -125
8 -105 23 -140 60 -140 31 0 44 25 50 92 3 29 7 80 10 113 3 33 8 71 10 85 2
14 7 63 10 110 3 47 8 96 10 110 2 14 6 57 10 95 3 39 8 87 10 108 3 21 7 71
10 110 3 40 7 88 10 107 16 147 23 234 24 303 l1 37 63 0 c36 0 68 5 75 12 16
16 16 120 0 136 -8 8 -46 12 -106 12 -92 0 -94 0 -152 40 -32 22 -62 45 -65
51 -13 20 -7 79 10 105 18 28 34 28 125 -5 97 -36 159 -24 208 39 47 60 85
167 70 194 -12 22 -44 20 -68 -4 -26 -26 -51 -25 -141 5 -96 33 -175 41 -211
20z"/>
<path d="M9334 5660 c-82 -37 -110 -100 -88 -196 26 -115 70 -142 157 -97 38
19 105 89 119 123 26 65 11 141 -33 168 -34 21 -111 22 -155 2z"/>
<path d="M9284 5302 c-12 -7 -162 -221 -183 -260 -10 -19 -10 -28 4 -48 20
-31 52 -31 87 3 l28 27 1 -90 c1 -230 9 -541 13 -559 17 -77 62 -136 141 -187
96 -62 105 -58 192 90 63 109 70 127 61 148 -17 37 -45 40 -77 10 -26 -25 -29
-26 -42 -10 -11 14 -14 71 -14 296 l0 280 25 19 c46 35 50 40 50 59 0 13 -20
32 -57 56 -32 20 -88 67 -125 105 -66 67 -81 76 -104 61z"/>
<path d="M4817 5281 c-15 -18 -46 -66 -62 -96 -6 -11 -28 -50 -48 -86 l-37
-66 21 -27 c26 -32 39 -33 69 -1 13 14 27 25 31 25 22 0 29 -80 29 -327 l-1
-263 -27 -20 c-49 -36 -53 -42 -50 -63 2 -16 20 -27 73 -47 96 -36 103 -41
166 -105 73 -76 88 -73 150 27 26 42 70 104 98 138 28 34 51 65 51 70 0 17
-32 40 -55 40 -15 0 -33 -11 -46 -30 l-22 -29 -39 21 -38 22 1 250 c1 214 3
254 17 269 14 16 18 13 50 -45 72 -130 78 -129 201 26 26 33 45 67 43 77 -4
24 -99 208 -119 231 -12 13 -21 15 -41 7 -15 -5 -32 -16 -38 -24 -6 -8 -37
-44 -69 -80 l-58 -66 -14 28 c-23 45 -84 103 -138 131 -60 32 -80 34 -98 13z"/>
<path d="M6968 5275 c-13 -15 -58 -63 -102 -106 l-78 -79 -28 38 c-34 47 -67
74 -126 102 -24 12 -42 26 -38 31 8 13 -22 22 -50 15 -18 -4 -41 -36 -90 -121
-36 -63 -66 -125 -66 -138 0 -50 45 -62 83 -21 22 23 25 24 38 8 22 -27 25
-489 3 -544 -9 -21 -22 -41 -29 -44 -8 -3 -19 -14 -25 -26 -10 -18 -3 -29 60
-92 38 -40 70 -77 70 -82 0 -20 52 -76 70 -76 22 0 27 5 76 80 20 30 56 74 80
97 24 23 44 48 44 55 0 6 -11 23 -24 37 -41 45 -46 81 -46 327 l0 232 50 37
49 36 41 -18 41 -18 2 -325 c2 -312 3 -327 24 -370 25 -51 78 -105 140 -144
54 -33 76 -33 103 2 25 32 118 187 130 218 19 49 -56 89 -80 44 -15 -28 -39
-25 -50 6 -14 35 -13 527 1 556 5 13 23 31 40 40 19 12 29 25 29 41 0 26 -18
37 -96 57 -43 10 -97 48 -149 103 -16 18 -40 40 -52 50 -21 19 -22 18 -45 -8z"/>
<path d="M9812 5272 c-15 -16 -36 -47 -47 -68 -11 -22 -34 -64 -52 -94 -37
-63 -41 -90 -15 -113 25 -23 35 -21 62 10 l23 27 19 -24 c18 -22 19 -41 16
-299 l-3 -276 -32 -20 c-62 -39 -52 -85 23 -104 69 -18 102 -37 171 -103 79
-76 93 -75 146 12 22 36 66 98 98 139 33 40 59 77 59 82 0 16 -32 39 -55 39
-15 0 -33 -11 -46 -30 l-22 -29 -38 21 -38 21 0 248 c0 219 2 251 17 269 17
21 18 20 57 -54 22 -42 42 -76 45 -77 3 0 13 -2 23 -4 20 -4 44 17 107 95 25
30 49 58 54 61 5 4 8 17 8 30 0 28 -104 230 -125 243 -27 17 -63 -6 -131 -85
l-68 -80 -15 28 c-21 41 -61 81 -118 118 -77 50 -91 52 -123 17z"/>
<path d="M5834 5248 c-40 -64 -67 -93 -141 -155 -207 -173 -274 -309 -251
-511 15 -134 62 -233 158 -329 28 -28 55 -65 61 -82 18 -51 48 -42 176 55 63
47 116 84 118 82 1 -2 10 -19 20 -38 22 -45 71 -88 112 -99 18 -5 40 -16 49
-25 21 -21 31 -20 44 4 6 11 15 18 21 15 5 -4 13 5 18 19 6 13 36 66 68 118
32 51 59 101 59 111 1 16 -30 47 -47 47 -4 0 -21 -11 -37 -25 -54 -45 -58 -30
-60 249 l-2 246 40 44 c53 57 52 72 -9 90 -96 28 -161 67 -245 147 -50 47 -92
79 -105 79 -14 0 -30 -14 -47 -42z m74 -307 l40 -20 -5 -248 c-4 -235 -5 -249
-25 -270 -36 -38 -56 -39 -95 -1 -133 127 -164 437 -61 606 l20 33 43 -40 c24
-22 61 -49 83 -60z"/>
<path d="M6024 3714 c-12 -29 -19 -34 -49 -34 -37 0 -56 -17 -34 -31 8 -5 24
-9 37 -9 20 0 23 -4 18 -27 -4 -16 -8 -39 -11 -53 -6 -31 -77 -100 -104 -100
-37 0 -33 21 14 64 56 53 60 89 10 93 -76 7 -138 -124 -85 -177 28 -28 58 -25
114 10 26 17 45 26 41 21 -7 -12 29 -51 48 -51 34 0 123 99 113 126 -5 13 -13
7 -39 -24 -42 -51 -66 -67 -80 -53 -8 8 -6 24 7 59 10 26 23 64 29 85 11 37
13 38 54 35 67 -3 73 25 8 38 -27 5 -35 11 -37 32 -5 40 -37 38 -54 -4z m-144
-159 c-7 -9 -15 -13 -18 -10 -3 2 1 11 8 20 7 9 15 13 18 10 3 -2 -1 -11 -8
-20z"/>
<path d="M6274 3713 c-13 -31 -19 -35 -45 -31 -35 5 -62 -18 -38 -33 8 -5 24
-9 37 -9 26 0 25 3 8 -76 -26 -120 6 -175 73 -128 22 16 24 16 33 0 5 -9 15
-16 23 -16 12 0 17 13 30 79 5 25 42 71 58 71 5 0 6 -10 3 -22 -23 -78 -24
-91 -14 -111 11 -21 39 -16 77 14 23 19 24 19 47 -6 38 -42 90 -30 154 35 22
23 40 44 40 49 0 23 -18 16 -61 -24 -47 -44 -81 -56 -94 -35 -4 6 14 31 40 54
56 53 60 89 10 94 -23 2 -38 -5 -63 -29 -17 -17 -32 -37 -32 -43 0 -14 -58
-76 -71 -76 -12 0 -12 -2 7 54 26 77 -9 119 -62 75 -18 -15 -18 -2 1 51 19 53
19 86 2 93 -20 7 -37 -6 -42 -33 -6 -29 -5 -29 -37 -23 -20 4 -28 12 -30 31
-5 40 -37 37 -54 -5z m100 -72 c14 -22 -18 -112 -53 -146 -60 -61 -71 -31 -30
87 22 61 27 68 51 68 15 0 29 -4 32 -9z m247 -94 c-13 -12 -20 -15 -16 -7 14
26 28 41 33 35 3 -3 -5 -16 -17 -28z"/>
<path d="M6904 3743 c-16 -3 -21 -12 -23 -36 -1 -18 -14 -84 -30 -147 -26
-101 -27 -117 -14 -130 13 -13 16 -13 26 1 19 27 83 298 72 307 -6 4 -19 6
-31 5z"/>
<path d="M7326 3741 c-11 -4 -20 -19 -23 -37 -4 -34 -5 -40 -23 -116 -9 -41
-22 -66 -47 -90 l-34 -33 6 30 c4 17 11 46 16 65 13 50 12 53 -18 47 -15 -3
-35 0 -45 7 -26 16 -66 -9 -92 -59 -26 -50 -56 -85 -73 -85 -18 0 -16 16 7 80
11 30 20 56 20 57 0 2 -11 3 -25 3 -31 0 -46 -27 -52 -100 -5 -51 -3 -59 17
-73 21 -15 26 -15 52 1 15 9 28 20 28 26 0 5 11 -3 25 -18 19 -20 31 -25 46
-21 15 5 8 -7 -24 -39 -42 -41 -45 -49 -42 -85 5 -47 22 -78 47 -84 34 -9 54
29 88 169 6 26 20 48 42 64 21 16 29 18 25 8 -6 -17 10 -38 29 -38 7 0 18 25
25 55 11 49 50 107 64 93 3 -2 -1 -25 -8 -49 -7 -24 -12 -50 -11 -56 1 -7 2
-17 3 -22 0 -5 8 -12 18 -15 19 -8 93 37 93 57 1 6 7 -3 15 -21 18 -41 41 -50
77 -29 24 14 28 14 28 2 0 -8 5 -15 11 -15 8 0 7 -5 -1 -15 -9 -11 -10 -19 -3
-26 14 -14 53 36 53 67 0 21 -9 29 -32 25 -18 -2 7 31 33 45 31 16 35 24 18
41 -19 19 -55 3 -67 -30 -15 -40 -59 -74 -75 -58 -8 8 -6 24 7 59 10 26 23 64
30 85 10 37 12 38 51 35 22 -2 41 0 43 5 6 20 -1 27 -33 33 -28 5 -35 11 -35
30 0 46 -42 41 -59 -8 -10 -27 -14 -30 -46 -26 -24 3 -36 -1 -40 -11 -7 -17
12 -31 43 -31 21 0 22 -3 16 -37 -7 -43 -43 -102 -75 -121 -28 -18 -31 -13
-14 33 8 22 14 47 14 55 1 40 -41 59 -71 32 -22 -19 -23 -7 -3 48 16 46 19 86
8 93 -5 3 -17 1 -27 -2z m-168 -189 c7 -21 6 -35 -5 -55 -20 -40 -61 -35 -54
6 13 80 40 102 59 49z m-39 -228 c-15 -54 -29 -66 -29 -24 0 18 7 42 17 52 22
24 24 19 12 -28z"/>
<path d="M8053 3742 c-6 -4 -16 -20 -22 -35 -9 -22 -17 -27 -45 -27 -38 0 -57
-17 -35 -31 8 -5 25 -9 38 -9 19 0 22 -4 17 -22 -3 -13 -6 -28 -6 -34 0 -7
-11 -19 -25 -28 -25 -17 -26 -16 -37 14 -21 62 -92 60 -121 -3 -37 -77 -12
-154 47 -143 35 6 44 13 61 45 7 15 25 35 38 44 23 15 23 15 23 -23 0 -64 35
-87 83 -54 22 16 24 16 33 0 5 -9 15 -16 23 -16 12 0 17 13 30 80 5 27 51 78
61 68 3 -4 0 -26 -8 -50 -8 -24 -13 -49 -12 -55 1 -7 2 -17 3 -22 3 -22 36
-20 72 4 38 24 39 24 49 5 14 -25 52 -35 89 -22 17 6 32 7 38 1 5 -5 25 18 48
56 26 42 46 65 58 65 18 0 18 -2 -2 -36 -27 -45 -27 -69 0 -88 20 -13 25 -13
51 0 15 8 45 37 66 64 20 27 39 49 42 49 10 1 32 -70 25 -77 -3 -4 -14 4 -24
16 -17 23 -17 23 -35 3 -14 -15 -15 -23 -6 -40 17 -33 53 -31 92 6 27 26 27
42 -2 104 -9 19 -9 32 -1 47 8 15 7 23 -4 32 -21 17 -65 -12 -65 -43 0 -26
-84 -127 -106 -127 -12 0 -9 10 10 43 27 48 22 87 -13 87 -14 0 -19 5 -16 19
2 11 -3 25 -12 33 -13 10 -19 8 -40 -16 -13 -16 -22 -35 -19 -43 13 -33 -63
-123 -104 -123 -36 0 -31 21 15 64 35 33 46 50 43 67 -8 58 -105 19 -129 -51
-9 -25 -66 -77 -75 -67 -2 2 3 24 11 48 9 24 13 54 11 65 -7 28 -39 36 -67 16
-18 -13 -22 -13 -17 -1 16 43 30 119 25 133 -5 12 -12 14 -29 7 -13 -4 -24
-13 -24 -20 -1 -6 -2 -18 -3 -26 -1 -10 -9 -13 -23 -11 -13 3 -28 5 -33 5 -6
1 -11 13 -10 28 0 28 -12 38 -32 25z m81 -101 c14 -22 -18 -112 -53 -146 -60
-61 -71 -31 -30 87 22 61 27 68 51 68 15 0 29 -4 32 -9z m-234 -91 c0 -22 -4
-28 -15 -24 -15 6 -20 35 -8 47 14 15 23 6 23 -23z m500 21 c0 -5 -7 -14 -15
-21 -16 -14 -18 -10 -9 14 6 17 24 22 24 7z m-520 -93 c0 -4 -5 -10 -11 -14
-12 -7 -29 12 -29 34 0 10 4 10 20 0 11 -7 20 -16 20 -20z"/>
<path d="M8987 3743 c-4 -3 -7 -25 -7 -48 0 -51 -27 -146 -46 -161 -7 -6 -13
-26 -13 -45 1 -19 -8 -71 -20 -116 -26 -101 -27 -129 -2 -143 50 -26 141 70
141 150 0 23 -25 77 -46 98 -21 20 -17 39 10 46 13 3 31 9 40 12 13 5 16 -2
16 -40 0 -37 4 -48 24 -61 34 -23 74 -10 98 32 19 32 58 63 58 46 0 -5 -4 -22
-9 -40 -7 -24 -6 -35 5 -44 10 -8 18 -9 25 -2 14 14 82 290 76 307 -5 12 -12
13 -29 7 -18 -6 -25 -19 -29 -52 -12 -78 -28 -124 -49 -137 -19 -12 -22 -10
-32 18 -17 51 -73 61 -108 20 -12 -14 -90 -38 -90 -28 0 2 9 32 20 68 27 90
27 120 -3 120 -13 0 -27 -3 -30 -7z m171 -191 c2 -15 -2 -22 -12 -22 -11 0
-16 9 -16 26 0 31 23 28 28 -4z m-21 -77 c-7 -19 -32 -10 -35 13 -3 21 -2 22
17 10 12 -7 20 -17 18 -23z m-143 -103 c-5 -25 -31 -82 -38 -82 -3 0 -11 -3
-20 -6 -13 -5 -13 0 -5 31 6 21 12 47 15 59 2 11 6 34 10 50 l6 28 18 -27 c10
-16 16 -38 14 -53z"/>
<path d="M9404 3740 c-13 -5 -22 -17 -22 -32 0 -13 -7 -50 -15 -83 -9 -33 -19
-74 -22 -92 -3 -18 -9 -43 -14 -56 -11 -27 8 -65 26 -54 8 5 39 97 47 142 1 6
11 45 21 88 20 82 15 101 -21 87z"/>
<path d="M6997 3712 c-22 -24 -4 -57 24 -42 22 12 25 33 6 49 -11 8 -18 7 -30
-7z"/>
<path d="M5712 3624 c-12 -8 -22 -24 -22 -34 0 -10 -8 -32 -17 -49 -22 -37 -8
-54 18 -22 22 27 21 27 39 -17 16 -41 5 -55 -19 -23 -16 21 -19 22 -34 6 -22
-21 -21 -31 2 -54 25 -25 54 -18 86 21 24 28 24 30 9 66 -9 20 -18 42 -21 49
-2 6 0 20 6 31 7 13 7 22 -1 30 -15 15 -19 15 -46 -4z"/>
<path d="M5211 3607 c-6 -8 -14 -34 -17 -58 -6 -46 -28 -89 -44 -89 -14 0 -12
36 4 98 l14 52 -24 0 c-30 0 -45 -33 -47 -106 -2 -78 34 -107 80 -65 20 19 20
19 36 0 9 -10 23 -19 30 -19 21 0 56 29 72 60 18 36 55 38 55 3 0 -29 33 -63
60 -63 27 0 91 33 110 57 8 10 21 26 28 35 8 10 11 22 7 28 -4 7 -25 -6 -55
-34 -48 -45 -82 -57 -95 -36 -4 6 14 31 40 54 56 53 60 89 9 94 -24 2 -38 -4
-62 -29 -18 -18 -32 -36 -32 -41 0 -4 -9 -8 -20 -8 -17 0 -19 5 -14 35 4 30 2
35 -14 35 -27 0 -44 -24 -48 -67 -3 -39 -22 -83 -36 -83 -21 0 -25 45 -8 83
10 22 17 47 15 56 -3 21 -29 26 -44 8z m249 -36 c0 -5 -7 -14 -15 -21 -16 -14
-18 -10 -9 14 6 17 24 22 24 7z"/>
<path d="M9484 3610 c-48 -19 -73 -140 -36 -173 35 -32 78 -17 111 38 25 43
46 45 47 5 3 -57 42 -77 81 -41 20 19 20 19 36 0 9 -10 24 -19 32 -19 17 0 55
34 72 63 8 16 22 22 54 26 4 1 18 10 33 22 31 24 25 46 -7 24 -12 -8 -30 -15
-40 -15 -15 0 -17 5 -11 35 5 31 4 35 -15 35 -22 0 -57 -43 -47 -59 7 -11 -23
-91 -34 -91 -13 0 -28 24 -24 40 2 8 10 34 19 58 16 45 13 62 -9 62 -22 0 -37
-26 -43 -77 -5 -45 -25 -83 -45 -83 -12 0 -10 41 7 95 8 27 12 51 10 53 -9 10
-55 -9 -55 -22 0 -19 -29 -48 -41 -41 -5 4 -9 14 -9 24 0 33 -49 56 -86 41z
m46 -55 c0 -16 -6 -25 -15 -25 -9 0 -15 9 -15 25 0 16 6 25 15 25 9 0 15 -9
15 -25z m-23 -80 c-7 -19 -32 -10 -35 13 -3 21 -2 22 17 10 12 -7 20 -17 18
-23z"/>
</g>
</svg>
